<svg aria-hidden="true" style="position: absolute; width: 0; height: 0; overflow: hidden;" version="1.1" xmlns="http://www.w3.org/2000/svg" xmlns:xlink="http://www.w3.org/1999/xlink">
<defs>
<symbol id="icon-check" viewBox="0 0 39 32">
<path d="M1.403 20.15c-0.909-0.872-1.378-2.033-1.402-3.202s0.399-2.347 1.271-3.256c0.871-0.908 2.032-1.378 3.2-1.401s2.347 0.397 3.256 1.27l7.849 7.553 15.627-19.851 0.56 0.427-0.561-0.429c0.045-0.058 0.095-0.107 0.152-0.148 0.93-0.805 2.097-1.169 3.237-1.107v-0.001l0.056 0.005c1.147 0.076 2.268 0.586 3.095 1.509 0.842 0.939 1.223 2.131 1.16 3.297h0.001l-0.005 0.056c-0.075 1.127-0.567 2.228-1.46 3.050l-18.753 22.83c-0.035 0.045-0.075 0.083-0.118 0.117-0.878 0.771-1.987 1.149-3.090 1.13-1.112-0.019-2.221-0.442-3.085-1.272l-10.993-10.578z"></path>
</symbol>
<symbol id="icon-shield" viewBox="0 0 33 32">
<path d="M16.5 20c0.378 0 0.695-0.128 0.95-0.383s0.383-0.572 0.383-0.95v-2h2c0.378 0 0.695-0.128 0.95-0.383s0.383-0.572 0.383-0.95-0.128-0.694-0.383-0.95c-0.256-0.255-0.572-0.383-0.95-0.383h-2v-2c0-0.378-0.128-0.694-0.383-0.95s-0.572-0.383-0.95-0.383-0.694 0.128-0.95 0.383c-0.255 0.256-0.383 0.572-0.383 0.95v2h-2c-0.378 0-0.694 0.128-0.95 0.383s-0.383 0.572-0.383 0.95 0.128 0.695 0.383 0.95c0.255 0.256 0.572 0.383 0.95 0.383h2v2c0 0.378 0.128 0.694 0.383 0.95s0.572 0.383 0.95 0.383zM16.5 29.233c-0.089 0-0.172-0.006-0.25-0.017s-0.15-0.028-0.217-0.050c-2.978-0.889-5.422-2.717-7.333-5.483s-2.867-5.806-2.867-9.117v-6.533c0-0.422 0.122-0.806 0.367-1.15s0.556-0.594 0.933-0.75l8.667-3.233c0.244-0.089 0.478-0.133 0.7-0.133s0.456 0.044 0.7 0.133l8.667 3.233c0.378 0.156 0.689 0.406 0.933 0.75s0.367 0.728 0.367 1.15v6.533c0 3.311-0.956 6.35-2.867 9.117s-4.355 4.595-7.333 5.483l-0.467 0.067z"></path>
</symbol>
<symbol id="icon-compost" viewBox="0 0 33 32">
<path d="M16.5 28.667c-1.755 0-3.4-0.333-4.933-1s-2.872-1.572-4.017-2.717-2.050-2.483-2.717-4.017c-0.667-1.533-1-3.178-1-4.933s0.333-3.4 1-4.933c0.667-1.533 1.572-2.872 2.717-4.017s2.483-2.050 4.017-2.717c1.533-0.667 3.178-1 4.933-1v-3.333l5.333 5.333-5.333 5.333v-3.333c-2.4 0-4.444 0.844-6.133 2.533s-2.533 3.733-2.533 6.133c0 1.467 0.339 2.828 1.017 4.083s1.583 2.272 2.717 3.050c0.355-0.622 0.883-1.15 1.583-1.583s1.506-0.706 2.417-0.817c-0.067-0.467-0.156-0.933-0.267-1.4s-0.244-0.9-0.4-1.3c-0.244 0.2-0.511 0.356-0.8 0.467s-0.6 0.167-0.933 0.167c-0.733 0-1.361-0.261-1.883-0.783s-0.783-1.15-0.783-1.883v-1.333c0-0.378-0.061-0.733-0.183-1.067s-0.283-0.644-0.483-0.933c1.111-0.022 2.1 0.078 2.967 0.3 0.756 0.2 1.444 0.528 2.067 0.983s0.944 1.139 0.967 2.050c0 0.2-0.017 0.383-0.050 0.55s-0.095 0.339-0.183 0.517c-0.289-0.222-0.578-0.422-0.867-0.6s-0.589-0.333-0.9-0.467c0.378 0.289 0.811 0.733 1.3 1.333s0.944 1.311 1.367 2.133c0.445-1.089 1-2.161 1.667-3.217s1.444-2.028 2.333-2.917c-0.511 0.356-1 0.733-1.467 1.133s-0.922 0.822-1.367 1.267c-0.156-0.244-0.278-0.517-0.367-0.817s-0.133-0.606-0.133-0.917c0-0.933 0.322-1.722 0.967-2.367s1.433-0.967 2.367-0.967h1.333c0.511 0 0.933-0.067 1.267-0.2s0.611-0.289 0.833-0.467c0.244-0.2 0.433-0.422 0.567-0.667 0.089 1.489 0.011 2.822-0.233 4-0.2 1-0.578 1.917-1.133 2.75s-1.433 1.25-2.633 1.25c-0.333 0-0.65-0.044-0.95-0.133s-0.572-0.211-0.817-0.367c-0.156 0.422-0.333 0.983-0.533 1.683s-0.355 1.45-0.467 2.25c0.844 0.155 1.589 0.444 2.233 0.867s1.133 0.922 1.467 1.5c1.133-0.778 2.039-1.789 2.717-3.033s1.017-2.611 1.017-4.1h4c0 1.756-0.333 3.4-1 4.933s-1.572 2.872-2.717 4.017c-1.144 1.144-2.483 2.050-4.017 2.717s-3.178 1-4.933 1z"></path>
</symbol>
<symbol id="icon-ecoleaf" viewBox="0 0 32 32">
<path d="M14.8 29.333c-0.933 0-1.806-0.089-2.617-0.267s-1.561-0.445-2.25-0.8c0.711-2.645 1.683-5.206 2.917-7.683s2.894-4.55 4.983-6.217c-2.489 1.2-4.65 2.867-6.483 5s-3.083 4.555-3.75 7.267c-0.089-0.089-0.172-0.167-0.25-0.233s-0.161-0.144-0.25-0.233c-1-1-1.767-2.145-2.3-3.433s-0.8-2.644-0.8-4.067c0-1.533 0.289-3.011 0.867-4.433s1.411-2.678 2.5-3.767c1.711-1.756 3.933-2.894 6.667-3.417s6.822-0.594 12.267-0.217c0.422 5.289 0.361 9.344-0.183 12.167s-1.706 5.122-3.483 6.9c-1.067 1.111-2.278 1.961-3.633 2.55s-2.756 0.883-4.2 0.883z"></path>
</symbol>
<symbol id="icon-hand" viewBox="0 0 33 32">
<path d="M1.833 26.867v-9.133c0-0.555 0.194-1.028 0.583-1.417s0.861-0.583 1.417-0.583h1.133c0.556 0 1.028 0.194 1.417 0.583s0.583 0.861 0.583 1.417v9.133c0 0.555-0.194 1.028-0.583 1.417s-0.861 0.583-1.417 0.583h-1.133c-0.556 0-1.028-0.195-1.417-0.583s-0.583-0.861-0.583-1.417zM18.8 29.767l-9.8-2.8v-11.233h2.767c0.111 0 0.228 0.011 0.35 0.033s0.239 0.056 0.35 0.1l8.167 3.067c0.667 0.244 1.178 0.617 1.533 1.117s0.533 1.006 0.533 1.517c0 0.178-0.055 0.322-0.167 0.433s-0.256 0.167-0.433 0.167h-2.433c-0.578 0-1.089-0.033-1.533-0.1s-0.933-0.189-1.467-0.367l-1.967-0.633c-0.133-0.044-0.261-0.039-0.383 0.017s-0.206 0.15-0.25 0.283c-0.044 0.133-0.039 0.261 0.017 0.383s0.15 0.206 0.283 0.25l2.033 0.7c0.356 0.111 0.806 0.217 1.35 0.317s1.317 0.15 2.317 0.15h6.5c1.267 0 2.128 0.294 2.583 0.883s0.683 1.483 0.683 2.683l-9.9 3.033c-0.178 0.044-0.367 0.067-0.567 0.067s-0.389-0.022-0.567-0.067zM22.033 16.333c-0.156 0-0.3-0.022-0.433-0.067s-0.256-0.122-0.367-0.233c-1.933-1.733-3.583-3.389-4.95-4.967s-2.050-3.044-2.050-4.4c0-1.156 0.389-2.122 1.167-2.9s1.744-1.167 2.9-1.167c0.667 0 1.328 0.183 1.983 0.55s1.239 0.861 1.75 1.483c0.511-0.622 1.094-1.117 1.75-1.483s1.317-0.55 1.983-0.55c1.155 0 2.122 0.389 2.9 1.167s1.167 1.744 1.167 2.9c0 1.356-0.683 2.822-2.050 4.4s-3.017 3.233-4.95 4.967c-0.111 0.111-0.233 0.189-0.367 0.233s-0.278 0.067-0.433 0.067z"></path>
</symbol>
<symbol id="icon-facebook" viewBox="0 0 32 32">
<path d="M21.329 5.313h2.921v-5.088c-0.504-0.069-2.237-0.225-4.256-0.225-4.212 0-7.097 2.649-7.097 7.519v4.481h-4.648v5.688h4.648v14.312h5.699v-14.311h4.46l0.708-5.688h-5.169v-3.919c0.001-1.644 0.444-2.769 2.735-2.769z"></path>
</symbol>
<symbol id="icon-instagram" viewBox="0 0 32 32">
<path d="M31.969 9.408c-0.075-1.7-0.35-2.869-0.744-3.882-0.406-1.075-1.032-2.038-1.851-2.838-0.8-0.813-1.769-1.444-2.832-1.844-1.019-0.394-2.182-0.669-3.882-0.744-1.713-0.081-2.257-0.1-6.601-0.1s-4.888 0.019-6.595 0.094c-1.7 0.075-2.869 0.35-3.882 0.744-1.075 0.406-2.038 1.031-2.838 1.85-0.813 0.8-1.444 1.769-1.844 2.832-0.394 1.019-0.669 2.182-0.744 3.882-0.081 1.713-0.1 2.257-0.1 6.601s0.019 4.888 0.094 6.595c0.075 1.7 0.35 2.869 0.744 3.882 0.406 1.075 1.038 2.038 1.85 2.838 0.8 0.813 1.769 1.444 2.832 1.844 1.019 0.394 2.182 0.669 3.882 0.744 1.706 0.075 2.25 0.094 6.595 0.094s4.888-0.019 6.595-0.094c1.7-0.075 2.869-0.35 3.882-0.744 2.151-0.832 3.851-2.532 4.682-4.682 0.394-1.019 0.669-2.182 0.744-3.882 0.075-1.707 0.094-2.251 0.094-6.595s-0.006-4.888-0.081-6.595zM29.087 22.473c-0.069 1.563-0.331 2.407-0.55 2.969-0.538 1.394-1.644 2.5-3.038 3.038-0.563 0.219-1.413 0.481-2.969 0.55-1.688 0.075-2.194 0.094-6.464 0.094s-4.782-0.019-6.464-0.094c-1.563-0.069-2.407-0.331-2.969-0.55-0.694-0.256-1.325-0.663-1.838-1.194-0.531-0.519-0.938-1.144-1.194-1.838-0.219-0.563-0.481-1.413-0.55-2.969-0.075-1.688-0.094-2.194-0.094-6.464s0.019-4.782 0.094-6.464c0.069-1.563 0.331-2.407 0.55-2.969 0.256-0.694 0.663-1.325 1.2-1.838 0.519-0.531 1.144-0.938 1.838-1.194 0.563-0.219 1.413-0.481 2.969-0.55 1.688-0.075 2.194-0.094 6.464-0.094 4.276 0 4.782 0.019 6.464 0.094 1.563 0.069 2.407 0.331 2.969 0.55 0.694 0.256 1.325 0.662 1.838 1.194 0.531 0.519 0.938 1.144 1.194 1.838 0.219 0.563 0.481 1.413 0.55 2.969 0.075 1.688 0.094 2.194 0.094 6.464s-0.019 4.77-0.094 6.458z"></path>
<path d="M16.059 7.783c-4.538 0-8.22 3.682-8.22 8.22s3.682 8.22 8.22 8.22c4.539 0 8.22-3.682 8.22-8.22s-3.682-8.22-8.22-8.22zM16.059 21.335c-2.944 0-5.332-2.388-5.332-5.332s2.388-5.332 5.332-5.332c2.944 0 5.332 2.388 5.332 5.332s-2.388 5.332-5.332 5.332z"></path>
<path d="M26.524 7.458c0 1.060-0.859 1.919-1.919 1.919s-1.919-0.859-1.919-1.919c0-1.060 0.859-1.919 1.919-1.919s1.919 0.859 1.919 1.919z"></path>
</symbol>
<symbol id="icon-envelope" viewBox="0 0 43 32">
<path d="M38.667 0h-34.667c-2.206 0-4 1.794-4 4v24c0 2.206 1.794 4 4 4h34.667c2.206 0 4-1.794 4-4v-24c0-2.206-1.794-4-4-4zM38.667 2.667c0.181 0 0.353 0.038 0.511 0.103l-17.844 15.466-17.844-15.466c0.158-0.066 0.33-0.103 0.511-0.103h34.667zM38.667 29.333h-34.667c-0.736 0-1.333-0.598-1.333-1.333v-22.413l17.793 15.421c0.251 0.217 0.563 0.326 0.874 0.326s0.622-0.108 0.874-0.326l17.793-15.421v22.413c0 0.736-0.598 1.333-1.333 1.333z"></path>
</symbol>
</defs>
</svg>
