<svg xmlns="http://www.w3.org/2000/svg" aria-hidden="true" style="position:absolute;width:0;height:0;overflow:hidden"><defs><symbol id="icon-check" viewBox="0 0 39 32"><path d="M1.403 20.15C.494 19.278.025 18.117.001 16.948s.399-2.347 1.271-3.256c.871-.908 2.032-1.378 3.2-1.401s2.347.397 3.256 1.27l7.849 7.553L31.204 1.263l.56.427-.561-.429a.734.734 0 0 1 .152-.148A4.557 4.557 0 0 1 34.592.006V.005l.056.005a4.551 4.551 0 0 1 3.095 1.509 4.556 4.556 0 0 1 1.16 3.297h.001l-.005.056a4.545 4.545 0 0 1-1.46 3.05l-18.753 22.83a.687.687 0 0 1-.118.117 4.557 4.557 0 0 1-3.09 1.13 4.553 4.553 0 0 1-3.085-1.272L1.4 20.149z"/></symbol><symbol id="icon-shield" viewBox="0 0 33 32"><path d="M16.5 20c.378 0 .695-.128.95-.383s.383-.572.383-.95v-2h2c.378 0 .695-.128.95-.383s.383-.572.383-.95-.128-.694-.383-.95a1.292 1.292 0 0 0-.95-.383h-2v-2c0-.378-.128-.694-.383-.95s-.572-.383-.95-.383-.694.128-.95.383a1.292 1.292 0 0 0-.383.95v2h-2c-.378 0-.694.128-.95.383s-.383.572-.383.95.128.695.383.95c.255.256.572.383.95.383h2v2c0 .378.128.694.383.95s.572.383.95.383zm0 9.233c-.089 0-.172-.006-.25-.017s-.15-.028-.217-.05c-2.978-.889-5.422-2.717-7.333-5.483s-2.867-5.806-2.867-9.117V8.033c0-.422.122-.806.367-1.15s.556-.594.933-.75L15.8 2.9c.244-.089.478-.133.7-.133s.456.044.7.133l8.667 3.233c.378.156.689.406.933.75s.367.728.367 1.15v6.533c0 3.311-.956 6.35-2.867 9.117s-4.355 4.595-7.333 5.483l-.467.067z"/></symbol><symbol id="icon-compost" viewBox="0 0 33 32"><path d="M16.5 28.667c-1.755 0-3.4-.333-4.933-1S8.695 26.095 7.55 24.95s-2.05-2.483-2.717-4.017c-.667-1.533-1-3.178-1-4.933s.333-3.4 1-4.933S6.405 8.195 7.55 7.05 10.033 5 11.567 4.333c1.533-.667 3.178-1 4.933-1V0l5.333 5.333-5.333 5.333V7.333c-2.4 0-4.444.844-6.133 2.533s-2.533 3.733-2.533 6.133c0 1.467.339 2.828 1.017 4.083s1.583 2.272 2.717 3.05c.355-.622.883-1.15 1.583-1.583s1.506-.706 2.417-.817c-.067-.467-.156-.933-.267-1.4s-.244-.9-.4-1.3c-.244.2-.511.356-.8.467s-.6.167-.933.167c-.733 0-1.361-.261-1.883-.783s-.783-1.15-.783-1.883v-1.333c0-.378-.061-.733-.183-1.067s-.283-.644-.483-.933c1.111-.022 2.1.078 2.967.3.756.2 1.444.528 2.067.983s.944 1.139.967 2.05c0 .2-.017.383-.05.55s-.095.339-.183.517c-.289-.222-.578-.422-.867-.6s-.589-.333-.9-.467c.378.289.811.733 1.3 1.333s.944 1.311 1.367 2.133c.445-1.089 1-2.161 1.667-3.217s1.444-2.028 2.333-2.917c-.511.356-1 .733-1.467 1.133s-.922.822-1.367 1.267c-.156-.244-.278-.517-.367-.817s-.133-.606-.133-.917c0-.933.322-1.722.967-2.367s1.433-.967 2.367-.967h1.333c.511 0 .933-.067 1.267-.2s.611-.289.833-.467c.244-.2.433-.422.567-.667.089 1.489.011 2.822-.233 4-.2 1-.578 1.917-1.133 2.75s-1.433 1.25-2.633 1.25c-.333 0-.65-.044-.95-.133s-.572-.211-.817-.367c-.156.422-.333.983-.533 1.683s-.355 1.45-.467 2.25c.844.155 1.589.444 2.233.867s1.133.922 1.467 1.5c1.133-.778 2.039-1.789 2.717-3.033s1.017-2.611 1.017-4.1h4c0 1.756-.333 3.4-1 4.933s-1.572 2.872-2.717 4.017c-1.144 1.144-2.483 2.05-4.017 2.717s-3.178 1-4.933 1z"/></symbol><symbol id="icon-ecoleaf" viewBox="0 0 32 32"><path d="M14.8 29.333c-.933 0-1.806-.089-2.617-.267s-1.561-.445-2.25-.8c.711-2.645 1.683-5.206 2.917-7.683s2.894-4.55 4.983-6.217c-2.489 1.2-4.65 2.867-6.483 5s-3.083 4.555-3.75 7.267c-.089-.089-.172-.167-.25-.233s-.161-.144-.25-.233a10.533 10.533 0 0 1-3.1-7.5c0-1.533.289-3.011.867-4.433s1.411-2.678 2.5-3.767C9.078 8.711 11.3 7.573 14.034 7.05s6.822-.594 12.267-.217c.422 5.289.361 9.344-.183 12.167s-1.706 5.122-3.483 6.9c-1.067 1.111-2.278 1.961-3.633 2.55s-2.756.883-4.2.883z"/></symbol><symbol id="icon-hand" viewBox="0 0 33 32"><path d="M1.833 26.867v-9.133c0-.555.194-1.028.583-1.417s.861-.583 1.417-.583h1.133c.556 0 1.028.194 1.417.583s.583.861.583 1.417v9.133c0 .555-.194 1.028-.583 1.417s-.861.583-1.417.583H3.833c-.556 0-1.028-.195-1.417-.583s-.583-.861-.583-1.417zm16.967 2.9-9.8-2.8V15.734h2.767a1.976 1.976 0 0 1 .7.133l8.167 3.067c.667.244 1.178.617 1.533 1.117s.533 1.006.533 1.517c0 .178-.055.322-.167.433s-.256.167-.433.167h-2.433c-.578 0-1.089-.033-1.533-.1s-.933-.189-1.467-.367l-1.967-.633c-.133-.044-.261-.039-.383.017s-.206.15-.25.283c-.044.133-.039.261.017.383s.15.206.283.25l2.033.7c.356.111.806.217 1.35.317s1.317.15 2.317.15h6.5c1.267 0 2.128.294 2.583.883s.683 1.483.683 2.683l-9.9 3.033c-.178.044-.367.067-.567.067s-.389-.022-.567-.067zm3.233-13.434c-.156 0-.3-.022-.433-.067s-.256-.122-.367-.233c-1.933-1.733-3.583-3.389-4.95-4.967s-2.05-3.044-2.05-4.4c0-1.156.389-2.122 1.167-2.9s1.744-1.167 2.9-1.167c.667 0 1.328.183 1.983.55s1.239.861 1.75 1.483c.511-.622 1.094-1.117 1.75-1.483s1.317-.55 1.983-.55c1.155 0 2.122.389 2.9 1.167s1.167 1.744 1.167 2.9c0 1.356-.683 2.822-2.05 4.4s-3.017 3.233-4.95 4.967c-.111.111-.233.189-.367.233s-.278.067-.433.067z"/></symbol></defs></svg>