<svg aria-hidden="true" style="position: absolute; width: 0; height: 0; overflow: hidden;" version="1.1" xmlns="http://www.w3.org/2000/svg" xmlns:xlink="http://www.w3.org/1999/xlink">
<defs>
<symbol id="icon-thumbs-up" viewBox="0 0 30 32">
<path stroke-linejoin="round" stroke-linecap="round" stroke-miterlimit="4" stroke-width="3.0476" d="M8.889 28.698h-3.81c-0.674 0-1.32-0.268-1.796-0.744s-0.744-1.122-0.744-1.796v-8.889c0-0.674 0.268-1.32 0.744-1.796s1.122-0.744 1.796-0.744h3.81M17.778 12.19v-5.079c0-1.010-0.401-1.979-1.116-2.694s-1.683-1.116-2.694-1.116l-5.079 11.429v13.968h14.324c0.613 0.007 1.207-0.208 1.674-0.605s0.774-0.949 0.866-1.554l1.752-11.429c0.055-0.364 0.031-0.736-0.072-1.089s-0.281-0.681-0.523-0.958c-0.242-0.278-0.541-0.5-0.877-0.651s-0.701-0.227-1.069-0.223h-7.187z"></path>
</symbol>
<symbol id="icon-facebook" viewBox="0 0 32 32">
<path d="M21.329 5.313h2.921v-5.088c-0.504-0.069-2.237-0.225-4.256-0.225-4.212 0-7.097 2.649-7.097 7.519v4.481h-4.648v5.688h4.648v14.312h5.699v-14.311h4.46l0.708-5.688h-5.169v-3.919c0.001-1.644 0.444-2.769 2.735-2.769z"></path>
</symbol>
</defs>
</svg>
